<svg width="22" height="22" viewBox="0 0 22 22" fill="none" xmlns="http://www.w3.org/2000/svg">
<path fill-rule="evenodd" clip-rule="evenodd" d="M20.1667 10.9999C20.1667 16.0625 16.0626 20.1666 11 20.1666C5.93743 20.1666 1.83337 16.0625 1.83337 10.9999C1.83337 5.93731 5.93743 1.83325 11 1.83325C16.0626 1.83325 20.1667 5.93731 20.1667 10.9999ZM11.3285 8.60049C10.4369 8.97133 8.65501 9.73889 5.98274 10.9032C5.5488 11.0757 5.32149 11.2445 5.30079 11.4096C5.26582 11.6886 5.61517 11.7984 6.09089 11.948C6.1556 11.9683 6.22264 11.9894 6.29138 12.0118C6.75942 12.1639 7.389 12.3419 7.7163 12.349C8.01319 12.3554 8.34455 12.233 8.71039 11.9818C11.2072 10.2964 12.496 9.4445 12.5769 9.42613C12.634 9.41317 12.7131 9.39688 12.7667 9.44452C12.8203 9.49216 12.8151 9.58238 12.8094 9.60659C12.7748 9.75412 11.4035 11.029 10.6938 11.6888C10.4726 11.8945 10.3157 12.0403 10.2836 12.0737C10.2117 12.1483 10.1385 12.2189 10.0681 12.2868C9.63327 12.7059 9.30719 13.0203 10.0861 13.5336C10.4605 13.7802 10.76 13.9842 11.0588 14.1877C11.3852 14.41 11.7107 14.6316 12.1318 14.9077C12.2391 14.9781 12.3416 15.0511 12.4414 15.1223C12.8212 15.393 13.1624 15.6363 13.584 15.5975C13.8289 15.5749 14.0819 15.3446 14.2104 14.6577C14.5141 13.0343 15.111 9.51679 15.249 8.06733C15.261 7.94034 15.2458 7.77781 15.2336 7.70647C15.2214 7.63512 15.1959 7.53347 15.1032 7.45822C14.9933 7.36911 14.8238 7.35031 14.748 7.35165C14.4032 7.35772 13.8742 7.54165 11.3285 8.60049Z" fill="#4F5363"/>
</svg>
